<?xml version="1.0" encoding="UTF-8"?><svg id="_イヤー_2" xmlns="http://www.w3.org/2000/svg" width="25.74541" height="139.12707" viewBox="0 0 25.74541 139.12707"><defs><style>.cls-1{fill:none;}.cls-2{fill:#fff;}</style></defs><g id="_イヤー_1-2"><g><g><path class="cls-2" d="M11.92921,21.67082c-.27815,0-.51064-.23041-.51064-.51063v-.20342c0-.28023,.23248-.51063,.51064-.51063h6.34764V8.41302H8.81975c-.02496,.0768-.02496,.1287-.02496,.2055l-2.47424,13.96979c-.04982,.25324-.27815,.40685-.51064,.40685h-.09964l-.56046-.0768c-.25739-.04982-.411-.28023-.411-.50856v-.10171L7.28784,7.64915V.9694C7.28784,.30724,7.69884,.00003,8.1804,.00003h10.8105c.61028,0,.89256,.43383,.89256,.96937V20.70147c0,.58536-.2823,.96937-.89256,.96937h-7.06171l.00002-.00002ZM18.27686,1.19978H8.89447V3.77371h9.38239V1.19978Zm0,3.79862H8.89447v2.19199h9.38239v-2.19199Z"/><path class="cls-2" d="M4.38177,63.35809c-.27815,0-.50648-.23248-.50648-.51064v-.20341c0-.2823,.22833-.53554,.50648-.53554h4.81989c.2823,0,.51064,.25323,.51064,.53554v.20341c0,.27815-.22833,.51064-.51064,.51064H4.38177Zm.411,2.49506c-.30721,0-.53554-.22833-.53554-.50648v-.20757c0-.27815,.22833-.50648,.53554-.50648h3.79861c.27815,0,.50648,.22833,.50648,.50648v.20757c0,.27815-.22833,.50648-.50648,.50648h-3.79861Zm0-4.89462c-.2823,0-.51064-.22833-.51064-.53554v-.17851c0-.30305,.22833-.53554,.51064-.53554h3.82353c.27815,0,.51064,.23248,.51064,.53554v.17851c0,.30721-.23248,.53554-.51064,.53554h-3.82353Zm.02492,7.36891c-.2823,0-.51064-.22833-.51064-.51064v-.20341c0-.2823,.22833-.51064,.51064-.51064h3.82353c.27815,0,.51064,.22833,.51064,.51064v.20341c0,.2823-.23248,.51064-.51064,.51064h-3.82353Zm.35703,11.82762c-.63933,0-.84274-.25323-.84274-.9922v-8.71815c0-.58951,.43591-.94653,.84274-.94653h3.36272c.53554,0,.94653,.35703,.94653,.94653v8.71815c0,.63518-.35703,.9922-.94653,.9922h-3.36272Zm2.80226-9.4073h-2.16708v8.1826h2.16708v-8.1826Zm2.603,6.93715c-.23248-.05397-.35703-.25739-.35703-.48573,0-.04982,0-.10379,.02492-.15361l3.10947-10.2459h-2.65282c-.27815,0-.50648-.23248-.50648-.51064v-.20341c0-.30721,.22833-.53554,.50648-.53554h3.28799c.68915,0,1.04617,.25323,1.04617,.76389,0,.12869-.02492,.27815-.07474,.43176l-3.26308,10.78558c-.04982,.20341-.2823,.35703-.51064,.35703-.02492,0-.07474,0-.12869-.02492l-.48157-.17851Zm14.55515,1.57758c-.10379,.07887-.20341,.10379-.30721,.10379-.15361,0-.27815-.07887-.38194-.22833l-7.44363-11.42078v13.30556c0,.63933-.30721,1.07109-.86766,1.07109h-4.23038c-.2823,0-.51064-.22833-.51064-.51064v-.20341c0-.2823,.22833-.51064,.51064-.51064h3.62012v-17.10417h-4.00204c-.2823,0-.51064-.22833-.51064-.51064v-.20341c0-.2823,.22833-.51064,.51064-.51064h4.53758c.53554,0,.94238,.35703,.94238,1.02127v1.42812l1.22469,1.88478,3.46651-3.26308c.09964-.10379,.22833-.15361,.35703-.15361,.15361,0,.27815,.04982,.38194,.17851l.2823,.35703c.09964,.10379,.14944,.22833,.14944,.35703s-.07474,.2823-.17851,.38194l-3.62012,3.41669,6.60503,10.04247c.04982,.07887,.07474,.20757,.07474,.30721,0,.17851-.04982,.35703-.20341,.46082l-.40685,.30305Zm-8.61852-17.61481c-.07474,.15361-.22833,.22833-.40685,.22833-.07474,0-.17851-.02492-.25323-.07474l-2.85623-1.70627c-.15361-.07887-.22833-.23248-.22833-.411,0-.07474,.02492-.17851,.07474-.25323l.25739-.38194c.09964-.15361,.25323-.22833,.40685-.22833,.07474,0,.17851,.02491,.25323,.07473l2.85623,1.68136c.15361,.10379,.22833,.25739,.22833,.40685,0,.07887-.02492,.17851-.07474,.25739l-.25739,.40685v.00002Z"/><path class="cls-2" d="M13.66454,138.92367c-.20341-.07474-.33212-.2823-.33212-.48573,0-.07474,0-.12454,.02492-.17851l2.70264-7.36476v-5.55885h-4.00204v9.73943c0,.6601-.35703,.9922-1.04617,.9922h-2.95587c-.71407,0-1.02127-.33212-1.02127-.9922v-9.99266c0-.48573,.43176-.97145,1.02127-.97145h2.54903v-1.98857H6.32056c-.27815,0-.51064-.22833-.51064-.51064v-.20341c0-.27815,.23248-.50648,.51064-.50648h4.58742c.74312,0,1.14996,.43176,1.14996,1.17072v2.03839h4.00204v-2.70264c0-.27815,.22833-.50648,.51064-.50648h.50648c.2823,0,.51064,.22833,.51064,.50648v3.00984l5.43016,2.52411c.17851,.09964,.30721,.27815,.30721,.48573,0,.04982-.02492,.12454-.04982,.20341l-.07887,.15361c-.09964,.17851-.27815,.30305-.48157,.30305-.05397,0-.12869-.02492-.20757-.04982l-4.91953-2.2169v4.53758c0,.58536,0,.81369-.12454,1.14581l-2.65282,7.29002c-.07474,.20341-.2823,.33212-.48573,.33212-.04982,0-.12454,0-.17851-.02492l-.48157-.17851-.00005,.00003Zm-3.05965-13.58784h-2.11726v9.50693h2.11726v-9.50693Z"/></g><rect class="cls-1" width="25.74541" height="138.92368"/></g></g></svg>