<?xml version="1.0" encoding="utf-8"?>
<!-- Generator: Adobe Illustrator 28.1.0, SVG Export Plug-In . SVG Version: 6.00 Build 0)  -->
<svg version="1.1" id="_レイヤー_2" xmlns="http://www.w3.org/2000/svg" xmlns:xlink="http://www.w3.org/1999/xlink" x="0px"
	 y="0px" viewBox="0 0 56.4 56.4" style="enable-background:new 0 0 56.4 56.4;" xml:space="preserve">
<style type="text/css">
	.st0{fill:#FFFFFF;}
</style>
<g id="_レイヤー_1-2_00000129193239795039386970000000463153377576634788_">
	<g id="_レイヤー_2-2">
		<g id="_レイヤー_1-2">
			<path class="st0" d="M28.4,10.2c2-0.1,3.9,0,6-0.1c0.1,2.4,1,4.6,2.7,6.2c1.7,1.6,4,2.6,6.4,2.7v6c-2.2-0.1-4.3-0.5-6.3-1.5
				c-0.8-0.4-1.6-0.9-2.5-1.4v13.2c-0.5,6.3-5.8,11.2-12.1,10.8c-1.8-0.1-3.6-0.6-5-1.6c-3.1-1.8-5.1-5-5.5-8.6
				c-0.1-0.7-0.1-1.5,0-2.2c0.3-2.9,1.6-5.6,3.8-7.5c2.6-2.2,6-3.2,9.3-2.6c0.1,2.2-0.1,4.5-0.1,6.7c-1.6-0.5-3.2-0.3-4.6,0.5
				c-0.9,0.6-1.6,1.6-2,2.7c-0.3,0.7-0.3,1.6-0.2,2.4c0.4,2.6,2.7,4.4,5.2,4.3c1.7,0,3.3-0.9,4.1-2.4c0.4-0.5,0.5-1,0.6-1.6
				c0.2-2.7,0.1-5.4,0.1-8.1C28.3,22.3,28.3,16.3,28.4,10.2L28.4,10.2L28.4,10.2z"/>
		</g>
	</g>
</g>
</svg>
