<?xml version="1.0" encoding="utf-8"?>
<!-- Generator: Adobe Illustrator 26.3.1, SVG Export Plug-In . SVG Version: 6.00 Build 0)  -->
<svg version="1.1" id="レイヤー_1" xmlns="http://www.w3.org/2000/svg" xmlns:xlink="http://www.w3.org/1999/xlink" x="0px"
	 y="0px" viewBox="0 0 77.8 77.8" style="enable-background:new 0 0 77.8 77.8;" xml:space="preserve">
<style type="text/css">
	.st0{fill:#FFFFFF;}
</style>
<g id="レイヤー_2_00000081619892600315128730000017543599260521345471_">
	<g id="レイヤー_1-2">
		<path class="st0" d="M64.1,26.2c-0.6-2.3-2.4-4.1-4.7-4.7c-4.1-1.1-20.6-1.1-20.6-1.1s-16.5,0-20.6,1.1c-2.3,0.6-4.1,2.4-4.7,4.7
			c-1.1,4.1-1.1,12.7-1.1,12.7s0,8.6,1.1,12.7c0.6,2.3,2.4,4.1,4.7,4.7c4.1,1.1,20.6,1.1,20.6,1.1s16.5,0,20.6-1.1
			c2.3-0.6,4.1-2.4,4.7-4.7c1.1-4.1,1.1-12.7,1.1-12.7S65.2,30.3,64.1,26.2z M33.6,46.8V30.9l13.7,7.9L33.6,46.8z"/>
	</g>
</g>
</svg>
