<?xml version="1.0"?>
<!--Icons from directory ""-->
<svg xmlns="http://www.w3.org/2000/svg" width="300" height="39600" viewBox="0 0 300 39600"><svg preserveAspectRatio="none" width="300" height="300" viewBox="0 0 350 350" id="moon_full20001" y="0"/><svg xmlns:xlink="http://www.w3.org/1999/xlink" preserveAspectRatio="none" width="300" height="300" viewBox="0 0 350 350" id="moon_full20002" y="300"><defs><path fill="#FFF" d="M248 66.55q4.819 3.88 9.45 8.2 44.6 41.7 44.6 100.55 0 45.258-26.35 80.3 29.3-34.83 29.3-81.85 0-53.35-37.7-91.05-9.19-9.19-19.3-16.15z" id="moon_full20002-a"/></defs><use xlink:href="#moon_full20002-a"/></svg><svg xmlns:xlink="http://www.w3.org/1999/xlink" preserveAspectRatio="none" width="300" height="300" viewBox="0 0 350 350" id="moon_full20003" y="600"><defs><path fill="#FFF" d="M225.2 54.2q14.4 8.564 27.25 20.55 44.6 41.7 44.6 100.55 0 58.9-44.6 100.55-5.028 4.695-10.3 8.85 13.347-8.097 25.15-19.9 37.7-37.7 37.7-91.05 0-53.35-37.7-91.05-19.045-19.045-42.1-28.5z" id="moon_full20003-a"/></defs><use xlink:href="#moon_full20003-a"/></svg><svg xmlns:xlink="http://www.w3.org/1999/xlink" preserveAspectRatio="none" width="300" height="300" viewBox="0 0 350 350" id="moon_full20004" y="900"><defs><path fill="#FFF" d="M216.4 51q15.142 8.916 28.6 21.65 44.6 42.3 44.6 101.95 0 59.75-44.6 102-10.546 9.978-22.15 17.6 24.442-9.392 44.45-29.4 37.7-37.7 37.7-91.05 0-53.35-37.7-91.05-22.628-22.628-50.9-31.7z" id="moon_full20004-a"/></defs><use xlink:href="#moon_full20004-a"/></svg><svg xmlns:xlink="http://www.w3.org/1999/xlink" preserveAspectRatio="none" width="300" height="300" viewBox="0 0 350 350" id="moon_full20005" y="1200"><defs><path fill="#FFF" d="M217.8 51.45q12.968 8.302 24.65 19.5 44.6 42.9 44.6 103.4 0 60.55-44.6 103.4-9.878 9.48-20.65 16.85 25.047-9.347 45.5-29.8 37.7-37.7 37.7-91.05 0-53.35-37.7-91.05-22.061-22.061-49.5-31.25z" id="moon_full20005-a"/></defs><use xlink:href="#moon_full20005-a"/></svg><svg xmlns:xlink="http://www.w3.org/1999/xlink" preserveAspectRatio="none" width="300" height="300" viewBox="0 0 350 350" id="moon_full20006" y="1500"><defs><path fill="#FFF" d="M217.9 51.5q11.192 7.565 21.4 17.35 44.6 42.9 44.6 103.4 0 60.55-44.6 103.4-14.22 13.646-30.35 22.95 32.79-8.24 58.35-33.8 37.7-37.7 37.7-91.05 0-53.35-37.7-91.05-22.021-22.021-49.4-31.2z" id="moon_full20006-a"/></defs><use xlink:href="#moon_full20006-a"/></svg><svg xmlns:xlink="http://www.w3.org/1999/xlink" preserveAspectRatio="none" width="300" height="300" viewBox="0 0 350 350" id="moon_full20007" y="1800"><defs><path fill="#FFF" d="M215.6 50.75q11.425 7.711 21.85 17.75 44.6 43.1 44.6 103.9 0 60.8-44.6 103.85-13.857 13.376-29.5 22.6 33.388-8.088 59.35-34.05 37.7-37.7 37.7-91.05 0-53.35-37.7-91.05-22.953-22.953-51.7-31.95z" id="moon_full20007-a"/></defs><use xlink:href="#moon_full20007-a"/></svg><svg xmlns:xlink="http://www.w3.org/1999/xlink" preserveAspectRatio="none" width="300" height="300" viewBox="0 0 350 350" id="moon_full20008" y="2100"><defs><path fill="#FFF" d="M213.65 50.15q11.928 7.928 22.75 18.35Q281 111.6 281 172.4q0 60.8-44.6 103.85-14.168 13.675-30.2 23 34.46-7.81 61.1-34.45 37.7-37.7 37.7-91.05 0-53.35-37.7-91.05-23.718-23.718-53.65-32.55z" id="moon_full20008-a"/></defs><use xlink:href="#moon_full20008-a"/></svg><svg xmlns:xlink="http://www.w3.org/1999/xlink" preserveAspectRatio="none" width="300" height="300" viewBox="0 0 350 350" id="moon_full20009" y="2400"><defs><path fill="#FFF" d="M215.5 50.75q9.414 6.89 18.1 15.45 44.6 44.05 44.6 106.2 0 62.2-44.6 106.2-11.641 11.485-24.55 19.95 32.719-8.219 58.25-33.75 37.7-37.7 37.7-91.05 0-53.35-37.7-91.05-22.979-22.979-51.8-31.95z" id="moon_full20009-a"/></defs><use xlink:href="#moon_full20009-a"/></svg><svg xmlns:xlink="http://www.w3.org/1999/xlink" preserveAspectRatio="none" width="300" height="300" viewBox="0 0 350 350" id="moon_full20010" y="2700"><defs><path fill="#FFF" d="M215.55 50.75q8.18 6.33 15.8 13.95 44.6 44.7 44.6 107.75 0 63.1-44.6 107.7-10.3 10.312-21.6 18.25 32.295-8.345 57.55-33.6 37.7-37.7 37.7-91.05 0-53.35-37.7-91.05-22.962-22.962-51.75-31.95z" id="moon_full20010-a"/></defs><use xlink:href="#moon_full20010-a"/></svg><svg xmlns:xlink="http://www.w3.org/1999/xlink" preserveAspectRatio="none" width="300" height="300" viewBox="0 0 350 350" id="moon_full20011" y="3000"><defs><path fill="#FFF" d="M215.35 50.7q7.063 5.724 13.7 12.45 44.6 45.35 44.6 109.3 0 64-44.6 109.25-9.11 9.253-19 16.6 32.11-8.36 57.25-33.5 37.7-37.7 37.7-91.05 0-53.35-37.7-91.05-23.043-23.043-51.95-32z" id="moon_full20011-a"/></defs><use xlink:href="#moon_full20011-a"/></svg><svg xmlns:xlink="http://www.w3.org/1999/xlink" preserveAspectRatio="none" width="300" height="300" viewBox="0 0 350 350" id="moon_full20012" y="3300"><defs><path fill="#FFF" d="M215.4 50.7q5.665 4.896 11.05 10.45 44.6 46.2 44.6 111.3 0 65.2-44.6 111.25-7.648 7.914-15.85 14.45 31.776-8.426 56.7-33.35 37.7-37.7 37.7-91.05 0-53.35-37.7-91.05-23.026-23.026-51.9-32z" id="moon_full20012-a"/></defs><use xlink:href="#moon_full20012-a"/></svg><svg xmlns:xlink="http://www.w3.org/1999/xlink" preserveAspectRatio="none" width="300" height="300" viewBox="0 0 350 350" id="moon_full20013" y="3600"><defs><path fill="#FFF" d="M215.1 50.6q4.434 4.068 8.7 8.55 44.6 47 44.6 113.3 0 66.35-44.6 113.25-6.369 6.704-13.1 12.45 31.706-8.456 56.6-33.35 37.7-37.7 37.7-91.05 0-53.35-37.7-91.05-23.15-23.15-52.2-32.1z" id="moon_full20013-a"/></defs><use xlink:href="#moon_full20013-a"/></svg><svg xmlns:xlink="http://www.w3.org/1999/xlink" preserveAspectRatio="none" width="300" height="300" viewBox="0 0 350 350" id="moon_full20014" y="3900"><defs><path fill="#FFF" d="M215 50.55q3.221 3.15 6.35 6.5 44.6 47.9 44.6 115.4 0 67.6-44.6 115.4-5.051 5.413-10.35 10.2 31.533-8.483 56.3-33.25 37.7-37.7 37.7-91.05 0-53.35-37.7-91.05-23.189-23.189-52.3-32.15z" id="moon_full20014-a"/></defs><use xlink:href="#moon_full20014-a"/></svg><svg xmlns:xlink="http://www.w3.org/1999/xlink" preserveAspectRatio="none" width="300" height="300" viewBox="0 0 350 350" id="moon_full20015" y="4200"><defs><path fill="#FFF" d="M214.7 50.5q2.135 2.15 4.2 4.4 44.6 48.8 44.6 117.55 0 68.85-44.6 117.5-3.888 4.245-7.95 8.1 31.572-8.472 56.35-33.25 37.7-37.7 37.7-91.05 0-53.35-37.7-91.05-23.297-23.297-52.6-32.2z" id="moon_full20015-a"/></defs><use xlink:href="#moon_full20015-a"/></svg><svg xmlns:xlink="http://www.w3.org/1999/xlink" preserveAspectRatio="none" width="300" height="300" viewBox="0 0 350 350" id="moon_full20016" y="4500"><defs><path fill="#FFF" d="M214.2 50.35q1.497 1.549 2.95 3.15 44.6 49.4 44.6 119 0 69.65-44.6 118.9-3.159 3.492-6.4 6.7 31.676-8.426 56.55-33.3 37.7-37.7 37.7-91.05 0-53.35-37.7-91.05-23.497-23.497-53.1-32.35z" id="moon_full20016-a"/></defs><use xlink:href="#moon_full20016-a"/></svg><svg xmlns:xlink="http://www.w3.org/1999/xlink" preserveAspectRatio="none" width="300" height="300" viewBox="0 0 350 350" id="moon_full20017" y="4800"><defs><path fill="#FFF" d="M213.65 50.15q.882.981 1.75 1.95 44.6 50 44.6 120.4 0 70.5-44.6 120.35-2.474 2.766-5 5.35 31.89-8.39 56.9-33.4 37.7-37.7 37.7-91.05 0-53.35-37.7-91.05-23.724-23.724-53.65-32.55z" id="moon_full20017-a"/></defs><use xlink:href="#moon_full20017-a"/></svg><svg xmlns:xlink="http://www.w3.org/1999/xlink" preserveAspectRatio="none" width="300" height="300" viewBox="0 0 350 350" id="moon_full20018" y="5100"><defs><path fill="#FFF" d="M211.75 49.65q1.133 1.204 2.25 2.45 44.6 50 44.6 120.4 0 70.5-44.6 120.35-2.7 3.018-5.5 5.85 33.063-8.162 58.8-33.9 37.7-37.7 37.7-91.05 0-53.35-37.7-91.05-24.475-24.475-55.55-33.05z" id="moon_full20018-a"/></defs><use xlink:href="#moon_full20018-a"/></svg><svg xmlns:xlink="http://www.w3.org/1999/xlink" preserveAspectRatio="none" width="300" height="300" viewBox="0 0 350 350" id="moon_full20019" y="5400"><defs><path fill="#FFF" d="M209.9 49.15q1.353 1.447 2.7 2.95 44.6 50 44.6 120.4 0 70.5-44.6 120.35-2.91 3.252-5.9 6.3 34.153-7.903 60.6-34.35 37.7-37.7 37.7-91.05 0-53.35-37.7-91.05-25.208-25.208-57.4-33.55z" id="moon_full20019-a"/></defs><use xlink:href="#moon_full20019-a"/></svg><svg xmlns:xlink="http://www.w3.org/1999/xlink" preserveAspectRatio="none" width="300" height="300" viewBox="0 0 350 350" id="moon_full20020" y="5700"><defs><path fill="#FFF" d="M208.9 48.85q.978 1.106 1.95 2.2 44.6 50.45 44.6 121.5 0 71.1-44.6 121.4-2.45 2.764-4.95 5.35 34.64-7.74 61.4-34.5 37.7-37.7 37.7-91.05 0-53.35-37.7-91.05-25.596-25.596-58.4-33.85z" id="moon_full20020-a"/></defs><use xlink:href="#moon_full20020-a"/></svg><svg xmlns:xlink="http://www.w3.org/1999/xlink" preserveAspectRatio="none" width="300" height="300" viewBox="0 0 350 350" id="moon_full20021" y="6000"><defs><path fill="#FFF" d="M207.9 48.65q.596.664 1.2 1.35 44.6 50.9 44.6 122.55 0 71.75-44.6 122.45-2.034 2.315-4.1 4.5 35.192-7.592 62.3-34.7 37.7-37.7 37.7-91.05 0-53.35-37.7-91.05-25.988-25.988-59.4-34.05z" id="moon_full20021-a"/></defs><use xlink:href="#moon_full20021-a"/></svg><svg xmlns:xlink="http://www.w3.org/1999/xlink" preserveAspectRatio="none" width="300" height="300" viewBox="0 0 350 350" id="moon_full20022" y="6300"><defs><path fill="#FFF" d="M207.3 48.5q43.6 51.694 43.6 124.05 0 73.35-44.6 125.2-.798.927-1.6 1.8 35.379-7.529 62.6-34.75 37.7-37.7 37.7-91.05 0-53.35-37.7-91.05-26.207-26.207-60-34.2z" id="moon_full20022-a"/></defs><use xlink:href="#moon_full20022-a"/></svg><svg xmlns:xlink="http://www.w3.org/1999/xlink" preserveAspectRatio="none" width="300" height="300" viewBox="0 0 350 350" id="moon_full20023" y="6600"><defs><path fill="#FFF" d="M206.55 48.3q41.55 52.051 41.55 124.25 0 74.426-44 127.15 35.757-7.457 63.2-34.9 37.7-37.7 37.7-91.05 0-53.35-37.7-91.05-26.507-26.507-60.75-34.4z" id="moon_full20023-a"/></defs><use xlink:href="#moon_full20023-a"/></svg><svg xmlns:xlink="http://www.w3.org/1999/xlink" preserveAspectRatio="none" width="300" height="300" viewBox="0 0 350 350" id="moon_full20024" y="6900"><defs><path fill="#FFF" d="M206.5 48.3q39 52.416 39 124.3 0 73.953-41.15 127.05 35.599-7.499 62.95-34.85 37.7-37.7 37.7-91.05 0-53.35-37.7-91.05-26.515-26.515-60.8-34.4z" id="moon_full20024-a"/></defs><use xlink:href="#moon_full20024-a"/></svg><svg xmlns:xlink="http://www.w3.org/1999/xlink" preserveAspectRatio="none" width="300" height="300" viewBox="0 0 350 350" id="moon_full20025" y="7200"><defs><path fill="#FFF" d="M206.2 48.25q36.65 52.785 36.65 124.35 0 73.612-38.65 127.1 35.696-7.496 63.1-34.9 37.7-37.7 37.7-91.05 0-53.35-37.7-91.05-26.641-26.641-61.1-34.45z" id="moon_full20025-a"/></defs><use xlink:href="#moon_full20025-a"/></svg><svg xmlns:xlink="http://www.w3.org/1999/xlink" preserveAspectRatio="none" width="300" height="300" viewBox="0 0 350 350" id="moon_full20026" y="7500"><defs><path fill="#FFF" d="M203.3 47.6q37.1 53.015 37.1 125 0 74.002-39.05 127.65 37.453-6.953 65.95-35.45 37.7-37.7 37.7-91.05 0-53.35-37.7-91.05-27.75-27.75-64-35.1z" id="moon_full20026-a"/></defs><use xlink:href="#moon_full20026-a"/></svg><svg xmlns:xlink="http://www.w3.org/1999/xlink" preserveAspectRatio="none" width="300" height="300" viewBox="0 0 350 350" id="moon_full20027" y="7800"><defs><path fill="#FFF" d="M202.15 47.4q35.8 53.276 35.8 125.25 0 73.86-37.6 127.75 38.07-6.72 66.95-35.6 37.7-37.7 37.7-91.05 0-53.35-37.7-91.05-28.192-28.192-65.15-35.3z" id="moon_full20027-a"/></defs><use xlink:href="#moon_full20027-a"/></svg><svg xmlns:xlink="http://www.w3.org/1999/xlink" preserveAspectRatio="none" width="300" height="300" viewBox="0 0 350 350" id="moon_full20028" y="8100"><defs><path fill="#FFF" d="M200.7 47.1q34.45 53.656 34.45 125.6 0 73.706-36.1 127.95 38.884-6.484 68.25-35.85 37.7-37.7 37.7-91.05 0-53.35-37.7-91.05-28.752-28.752-66.6-35.6z" id="moon_full20028-a"/></defs><use xlink:href="#moon_full20028-a"/></svg><svg xmlns:xlink="http://www.w3.org/1999/xlink" preserveAspectRatio="none" width="300" height="300" viewBox="0 0 350 350" id="moon_full20029" y="8400"><defs><path fill="#FFF" d="M198.7 46.75q34.7 53.78 34.7 125.95 0 73.918-36.3 128.25 40.096-6.046 70.2-36.15 37.7-37.7 37.7-91.05 0-53.35-37.7-91.05-29.497-29.497-68.6-35.95z" id="moon_full20029-a"/></defs><use xlink:href="#moon_full20029-a"/></svg><svg xmlns:xlink="http://www.w3.org/1999/xlink" preserveAspectRatio="none" width="300" height="300" viewBox="0 0 350 350" id="moon_full20030" y="8700"><defs><path fill="#FFF" d="M197.55 46.6q34.8 53.804 34.8 126.1 0 74.035-36.4 128.45 40.81-5.81 71.35-36.35 37.7-37.7 37.7-91.05 0-53.35-37.7-91.05-29.938-29.938-69.75-36.1z" id="moon_full20030-a"/></defs><use xlink:href="#moon_full20030-a"/></svg><svg xmlns:xlink="http://www.w3.org/1999/xlink" preserveAspectRatio="none" width="300" height="300" viewBox="0 0 350 350" id="moon_full20031" y="9000"><defs><path fill="#FFF" d="M196.4 46.4q34.9 53.887 34.9 126.3 0 74.142-36.5 128.6 41.528-5.528 72.5-36.5 37.7-37.7 37.7-91.05 0-53.35-37.7-91.05-30.375-30.375-70.9-36.3z" id="moon_full20031-a"/></defs><use xlink:href="#moon_full20031-a"/></svg><svg xmlns:xlink="http://www.w3.org/1999/xlink" preserveAspectRatio="none" width="300" height="300" viewBox="0 0 350 350" id="moon_full20032" y="9300"><defs><path fill="#FFF" d="M196 46.35q33.9 54.048 33.9 126.35 0 74.016-35.4 128.6 41.725-5.425 72.8-36.5 37.7-37.7 37.7-91.05 0-53.35-37.7-91.05-30.515-30.515-71.3-36.35z" id="moon_full20032-a"/></defs><use xlink:href="#moon_full20032-a"/></svg><svg xmlns:xlink="http://www.w3.org/1999/xlink" preserveAspectRatio="none" width="300" height="300" viewBox="0 0 350 350" id="moon_full20033" y="9600"><defs><path fill="#FFF" d="M195.6 46.3q32.9 54.23 32.9 126.4 0 73.863-34.35 128.65Q236.1 296 267.3 264.8q37.7-37.7 37.7-91.05 0-53.35-37.7-91.05-30.665-30.665-71.7-36.4z" id="moon_full20033-a"/></defs><use xlink:href="#moon_full20033-a"/></svg><svg xmlns:xlink="http://www.w3.org/1999/xlink" preserveAspectRatio="none" width="300" height="300" viewBox="0 0 350 350" id="moon_full20034" y="9900"><defs><path fill="#FFF" d="M194.45 46.15q33 54.277 33 126.55 0 73.958-34.4 128.8 42.626-5.076 74.25-36.7 37.7-37.7 37.7-91.05 0-53.35-37.7-91.05-31.091-31.091-72.85-36.55z" id="moon_full20034-a"/></defs><use xlink:href="#moon_full20034-a"/></svg><svg xmlns:xlink="http://www.w3.org/1999/xlink" preserveAspectRatio="none" width="300" height="300" viewBox="0 0 350 350" id="moon_full20035" y="10200"><defs><path fill="#FFF" d="M193.3 46q33.1 54.331 33.1 126.7 0 74.045-34.5 128.95 43.357-4.807 75.4-36.85 37.7-37.7 37.7-91.05 0-53.35-37.7-91.05-31.514-31.514-74-36.7z" id="moon_full20035-a"/></defs><use xlink:href="#moon_full20035-a"/></svg><svg xmlns:xlink="http://www.w3.org/1999/xlink" preserveAspectRatio="none" width="300" height="300" viewBox="0 0 350 350" id="moon_full20036" y="10500"><defs><path fill="#FFF" d="M192.65 45.9q32.2 54.537 32.2 126.8 0 73.926-33.55 129 43.737-4.637 76-36.9 37.7-37.7 37.7-91.05 0-53.35-37.7-91.05-31.767-31.767-74.65-36.8z" id="moon_full20036-a"/></defs><use xlink:href="#moon_full20036-a"/></svg><svg xmlns:xlink="http://www.w3.org/1999/xlink" preserveAspectRatio="none" width="300" height="300" viewBox="0 0 350 350" id="moon_full20037" y="10800"><defs><path fill="#FFF" d="M191.9 45.85q31.35 54.676 31.35 126.85 0 73.81-32.65 129.1 44.17-4.47 76.7-37 37.7-37.7 37.7-91.05 0-53.35-37.7-91.05-32.042-32.042-75.4-36.85z" id="moon_full20037-a"/></defs><use xlink:href="#moon_full20037-a"/></svg><svg xmlns:xlink="http://www.w3.org/1999/xlink" preserveAspectRatio="none" width="300" height="300" viewBox="0 0 350 350" id="moon_full20038" y="11100"><defs><path fill="#FFF" d="M191.5 45.8q30.55 54.856 30.55 126.95 0 73.635-31.8 129.05 44.408-4.358 77.05-37 37.7-37.7 37.7-91.05 0-53.35-37.7-91.05-32.183-32.183-75.8-36.9z" id="moon_full20038-a"/></defs><use xlink:href="#moon_full20038-a"/></svg><svg xmlns:xlink="http://www.w3.org/1999/xlink" preserveAspectRatio="none" width="300" height="300" viewBox="0 0 350 350" id="moon_full20039" y="11400"><defs><path fill="#FFF" d="M191.05 45.75q29.75 55.019 29.75 127 0 73.514-30.95 129.1 44.662-4.262 77.45-37.05 37.7-37.7 37.7-91.05 0-53.35-37.7-91.05-32.356-32.356-76.25-36.95z" id="moon_full20039-a"/></defs><use xlink:href="#moon_full20039-a"/></svg><svg xmlns:xlink="http://www.w3.org/1999/xlink" preserveAspectRatio="none" width="300" height="300" viewBox="0 0 350 350" id="moon_full20040" y="11700"><defs><path fill="#FFF" d="M190.8 45.7q28.8 55.203 28.8 127.05 0 73.34-29.9 129.1 44.75-4.2 77.6-37.05 37.7-37.7 37.7-91.05 0-53.35-37.7-91.05-32.442-32.442-76.5-37z" id="moon_full20040-a"/></defs><use xlink:href="#moon_full20040-a"/></svg><svg xmlns:xlink="http://www.w3.org/1999/xlink" preserveAspectRatio="none" width="300" height="300" viewBox="0 0 350 350" id="moon_full20041" y="12000"><defs><path fill="#FFF" d="M190.5 45.7q27.85 55.347 27.85 127.05 0 73.202-28.95 129.15 44.943-4.143 77.9-37.1 37.7-37.7 37.7-91.05 0-53.35-37.7-91.05-32.56-32.56-76.8-37z" id="moon_full20041-a"/></defs><use xlink:href="#moon_full20041-a"/></svg><svg xmlns:xlink="http://www.w3.org/1999/xlink" preserveAspectRatio="none" width="300" height="300" viewBox="0 0 350 350" id="moon_full20042" y="12300"><defs><path fill="#FFF" d="M190.3 45.65q26.85 55.56 26.85 127.15 0 72.977-27.85 129.1 45.007-4.107 78-37.1 37.7-37.7 37.7-91.05 0-53.35-37.7-91.05-32.63-32.63-77-37.05z" id="moon_full20042-a"/></defs><use xlink:href="#moon_full20042-a"/></svg><svg xmlns:xlink="http://www.w3.org/1999/xlink" preserveAspectRatio="none" width="300" height="300" viewBox="0 0 350 350" id="moon_full20043" y="12600"><defs><path fill="#FFF" d="M190 45.65q25.9 55.72 25.9 127.15 0 72.83-26.8 129.1 45.123-4.023 78.2-37.1 37.7-37.7 37.7-91.05 0-53.35-37.7-91.05-32.733-32.733-77.3-37.05z" id="moon_full20043-a"/></defs><use xlink:href="#moon_full20043-a"/></svg><svg xmlns:xlink="http://www.w3.org/1999/xlink" preserveAspectRatio="none" width="300" height="300" viewBox="0 0 350 350" id="moon_full20044" y="12900"><defs><path fill="#FFF" d="M189.65 45.6q25.2 55.86 25.2 127.25 0 72.704-26.1 129.1 45.347-3.947 78.55-37.15 37.7-37.7 37.7-91.05 0-53.35-37.7-91.05-32.88-32.88-77.65-37.1z" id="moon_full20044-a"/></defs><use xlink:href="#moon_full20044-a"/></svg><svg xmlns:xlink="http://www.w3.org/1999/xlink" preserveAspectRatio="none" width="300" height="300" viewBox="0 0 350 350" id="moon_full20045" y="13200"><defs><path fill="#FFF" d="M189.2 45.55q24.6 56.005 24.6 127.3 0 72.597-25.45 129.15 45.608-3.858 78.95-37.2 37.7-37.7 37.7-91.05 0-53.35-37.7-91.05-33.03-33.03-78.1-37.15z" id="moon_full20045-a"/></defs><use xlink:href="#moon_full20045-a"/></svg><svg xmlns:xlink="http://www.w3.org/1999/xlink" preserveAspectRatio="none" width="300" height="300" viewBox="0 0 350 350" id="moon_full20046" y="13500"><defs><path fill="#FFF" d="M188.55 45.5q23.15 56.292 23.15 127.35 0 72.363-23.95 129.2 45.99-3.69 79.55-37.25 37.7-37.7 37.7-91.05 0-53.35-37.7-91.05-33.275-33.275-78.75-37.2z" id="moon_full20046-a"/></defs><use xlink:href="#moon_full20046-a"/></svg><svg xmlns:xlink="http://www.w3.org/1999/xlink" preserveAspectRatio="none" width="300" height="300" viewBox="0 0 350 350" id="moon_full20047" y="13800"><defs><path fill="#FFF" d="M187.75 45.45q21.85 56.532 21.85 127.4 0 72.128-22.6 129.25 46.469-3.469 80.3-37.3 37.7-37.7 37.7-91.05 0-53.35-37.7-91.05-33.562-33.562-79.55-37.25z" id="moon_full20047-a"/></defs><use xlink:href="#moon_full20047-a"/></svg><svg xmlns:xlink="http://www.w3.org/1999/xlink" preserveAspectRatio="none" width="300" height="300" viewBox="0 0 350 350" id="moon_full20048" y="14100"><defs><path fill="#FFF" d="M186.95 45.4q21.25 56.671 21.25 127.5 0 71.992-21.9 129.25 46.903-3.253 81-37.35 37.7-37.7 37.7-91.05 0-53.35-37.7-91.05-33.849-33.849-80.35-37.3z" id="moon_full20048-a"/></defs><use xlink:href="#moon_full20048-a"/></svg><svg xmlns:xlink="http://www.w3.org/1999/xlink" preserveAspectRatio="none" width="300" height="300" viewBox="0 0 350 350" id="moon_full20049" y="14400"><defs><path fill="#FFF" d="M186.15 45.3q20.65 56.863 20.65 127.6 0 71.912-21.3 129.3 47.424-3.024 81.8-37.4 37.7-37.7 37.7-91.05 0-53.35-37.7-91.05-34.14-34.14-81.15-37.4z" id="moon_full20049-a"/></defs><use xlink:href="#moon_full20049-a"/></svg><svg xmlns:xlink="http://www.w3.org/1999/xlink" preserveAspectRatio="none" width="300" height="300" viewBox="0 0 350 350" id="moon_full20050" y="14700"><defs><path fill="#FFF" d="M185.15 45.25q19.9 57.042 19.9 127.7 0 71.769-20.5 129.3 48.03-2.73 82.75-37.45 37.7-37.7 37.7-91.05 0-53.35-37.7-91.05-34.506-34.506-82.15-37.45z" id="moon_full20050-a"/></defs><use xlink:href="#moon_full20050-a"/></svg><svg xmlns:xlink="http://www.w3.org/1999/xlink" preserveAspectRatio="none" width="300" height="300" viewBox="0 0 350 350" id="moon_full20051" y="15000"><defs><path fill="#FFF" d="M184.15 45.2q19.15 57.188 19.15 127.75 0 71.663-19.75 129.35 48.664-2.414 83.75-37.5 37.7-37.7 37.7-91.05 0-53.35-37.7-91.05-34.882-34.882-83.15-37.5z" id="moon_full20051-a"/></defs><use xlink:href="#moon_full20051-a"/></svg><svg xmlns:xlink="http://www.w3.org/1999/xlink" preserveAspectRatio="none" width="300" height="300" viewBox="0 0 350 350" id="moon_full20052" y="15300"><defs><path fill="#FFF" d="M183.25 45.15q18.3 57.4 18.3 127.8 0 71.505-18.8 129.4 49.163-2.163 84.55-37.55 37.7-37.7 37.7-91.05 0-53.35-37.7-91.05-35.197-35.197-84.05-37.55z" id="moon_full20052-a"/></defs><use xlink:href="#moon_full20052-a"/></svg><svg xmlns:xlink="http://www.w3.org/1999/xlink" preserveAspectRatio="none" width="300" height="300" viewBox="0 0 350 350" id="moon_full20053" y="15600"><defs><path fill="#FFF" d="M182.35 45.1q17.45 57.585 17.45 127.85 0 71.357-17.95 129.45 49.741-1.891 85.45-37.6 37.7-37.7 37.7-91.05 0-53.35-37.7-91.05-35.53-35.53-84.95-37.6z" id="moon_full20053-a"/></defs><use xlink:href="#moon_full20053-a"/></svg><svg xmlns:xlink="http://www.w3.org/1999/xlink" preserveAspectRatio="none" width="300" height="300" viewBox="0 0 350 350" id="moon_full20054" y="15900"><defs><path fill="#FFF" d="M182.15 45.1q15.9 57.907 15.9 127.85 0 71.014-16.35 129.45 49.847-1.847 85.6-37.6 37.7-37.7 37.7-91.05 0-53.35-37.7-91.05-35.593-35.593-85.15-37.6z" id="moon_full20054-a"/></defs><use xlink:href="#moon_full20054-a"/></svg><svg xmlns:xlink="http://www.w3.org/1999/xlink" preserveAspectRatio="none" width="300" height="300" viewBox="0 0 350 350" id="moon_full20055" y="16200"><defs><path fill="#FFF" d="M181.75 45.1q14.55 58.189 14.55 127.85 0 70.72-14.95 129.45 50.074-1.724 85.95-37.6 37.7-37.7 37.7-91.05 0-53.35-37.7-91.05-35.73-35.73-85.55-37.6z" id="moon_full20055-a"/></defs><use xlink:href="#moon_full20055-a"/></svg><svg xmlns:xlink="http://www.w3.org/1999/xlink" preserveAspectRatio="none" width="300" height="300" viewBox="0 0 350 350" id="moon_full20056" y="16500"><defs><path fill="#FFF" d="M181.6 45.1q12.45 58.67 12.45 127.9 0 70.21-12.8 129.4 50.136-1.686 86.05-37.6 37.7-37.7 37.7-91.05 0-53.35-37.7-91.05-35.798-35.798-85.7-37.6z" id="moon_full20056-a"/></defs><use xlink:href="#moon_full20056-a"/></svg><svg xmlns:xlink="http://www.w3.org/1999/xlink" preserveAspectRatio="none" width="300" height="300" viewBox="0 0 350 350" id="moon_full20057" y="16800"><defs><path fill="#FFF" d="M180.95 45.05q10.8 59.093 10.8 127.95 0 69.811-11.1 129.4 50.521-1.471 86.65-37.6 37.7-37.7 37.7-91.05 0-53.35-37.7-91.05-36.03-36.03-86.35-37.65z" id="moon_full20057-a"/></defs><use xlink:href="#moon_full20057-a"/></svg><svg xmlns:xlink="http://www.w3.org/1999/xlink" preserveAspectRatio="none" width="300" height="300" viewBox="0 0 350 350" id="moon_full20058" y="17100"><defs><path fill="#FFF" d="M180.35 45.05q9.65 59.393 9.65 128 0 69.481-9.9 129.4 50.88-1.33 87.2-37.65 37.7-37.7 37.7-91.05 0-53.35-37.7-91.05-36.235-36.235-86.95-37.65z" id="moon_full20058-a"/></defs><use xlink:href="#moon_full20058-a"/></svg><svg xmlns:xlink="http://www.w3.org/1999/xlink" preserveAspectRatio="none" width="300" height="300" viewBox="0 0 350 350" id="moon_full20059" y="17400"><defs><path fill="#FFF" d="M179.6 45.05q8.65 59.648 8.65 128 0 69.222-8.85 129.4 51.322-1.072 87.9-37.65 37.7-37.7 37.7-91.05 0-53.35-37.7-91.05-36.505-36.505-87.7-37.65z" id="moon_full20059-a"/></defs><use xlink:href="#moon_full20059-a"/></svg><svg xmlns:xlink="http://www.w3.org/1999/xlink" preserveAspectRatio="none" width="300" height="300" viewBox="0 0 350 350" id="moon_full20060" y="17700"><defs><path fill="#FFF" d="M178.6 45q7.75 59.942 7.75 128.05 0 68.969-7.9 129.4 51.932-.732 88.85-37.65 37.7-37.7 37.7-91.05 0-53.35-37.7-91.05-36.854-36.854-88.7-37.7z" id="moon_full20060-a"/></defs><use xlink:href="#moon_full20060-a"/></svg><svg xmlns:xlink="http://www.w3.org/1999/xlink" preserveAspectRatio="none" width="300" height="300" viewBox="0 0 350 350" id="moon_full20061" y="18000"><defs><path fill="#FFF" d="M177.45 45q6.95 60.156 6.95 128.05 0 68.737-7.1 129.45 52.674-.374 90-37.7 37.7-37.7 37.7-91.05 0-53.35-37.7-91.05-37.27-37.27-89.85-37.7z" id="moon_full20061-a"/></defs><use xlink:href="#moon_full20061-a"/></svg><svg xmlns:xlink="http://www.w3.org/1999/xlink" preserveAspectRatio="none" width="300" height="300" viewBox="0 0 350 350" id="moon_full20062" y="18300"><defs><path fill="#FFF" d="M176.55 45q6.1 60.418 6.1 128.05 0 68.464-6.2 129.45 53.219-.069 90.85-37.7 37.7-37.7 37.7-91.05 0-53.35-37.7-91.05-37.583-37.583-90.75-37.7z" id="moon_full20062-a"/></defs><use xlink:href="#moon_full20062-a"/></svg><svg xmlns:xlink="http://www.w3.org/1999/xlink" preserveAspectRatio="none" width="300" height="300" viewBox="0 0 350 350" id="moon_full20063" y="18600"><defs><path fill="#FFF" d="M176.25 45h-.7q5.35 60.648 5.35 128.05 0 68.22-5.5 129.45h.85q53.35 0 91.05-37.7 37.7-37.7 37.7-91.05 0-53.35-37.7-91.05Q229.6 45 176.25 45z" id="moon_full20063-a"/></defs><use xlink:href="#moon_full20063-a"/></svg><svg xmlns:xlink="http://www.w3.org/1999/xlink" preserveAspectRatio="none" width="300" height="300" viewBox="0 0 350 350" id="moon_full20064" y="18900"><defs><path fill="#FFF" d="M176.25 45h-.7q2.9 61.592 2.9 128.1 0 67.238-3 129.4h.8q53.35 0 91.05-37.7 37.7-37.7 37.7-91.05 0-53.35-37.7-91.05Q229.6 45 176.25 45z" id="moon_full20064-a"/></defs><use xlink:href="#moon_full20064-a"/></svg><svg xmlns:xlink="http://www.w3.org/1999/xlink" preserveAspectRatio="none" width="300" height="300" viewBox="0 0 350 350" id="moon_full20065" y="19200"><defs><path fill="#FFF" d="M176.25 45h-2.1Q176 107.125 176 173.1q0 66.687-1.9 129.35 1.09.05 2.15.05 53.35 0 91.05-37.7 37.7-37.7 37.7-91.05 0-53.35-37.7-91.05Q229.6 45 176.25 45z" id="moon_full20065-a"/></defs><use xlink:href="#moon_full20065-a"/></svg><svg xmlns:xlink="http://www.w3.org/1999/xlink" preserveAspectRatio="none" width="300" height="300" viewBox="0 0 350 350" id="moon_full20066" y="19500"><defs><path fill="#FFF" d="M176.25 45q-2.087 0-4.15.05v257.4q2.063.05 4.15.05 53.35 0 91.05-37.7 37.7-37.7 37.7-91.05 0-53.35-37.7-91.05Q229.6 45 176.25 45z" id="moon_full20066-a"/></defs><use xlink:href="#moon_full20066-a"/></svg><svg xmlns:xlink="http://www.w3.org/1999/xlink" preserveAspectRatio="none" width="300" height="300" viewBox="0 0 350 350" id="moon_full20067" y="19800"><defs><path fill="#FFF" d="M176.25 45q-3.286 0-6.5.15-5 57.908-5 123.05 0 71.45 6 134.2 2.73.1 5.5.1 53.35 0 91.05-37.7 37.7-37.7 37.7-91.05 0-53.3-37.7-91Q229.6 45 176.25 45z" id="moon_full20067-a"/></defs><use xlink:href="#moon_full20067-a"/></svg><svg xmlns:xlink="http://www.w3.org/1999/xlink" preserveAspectRatio="none" width="300" height="300" viewBox="0 0 350 350" id="moon_full20068" y="20100"><defs><path fill="#FFF" d="M176.25 45q-3.887 0-7.7.2-5.45 57.742-5.45 123 0 71.61 6.55 134.15 3.279.15 6.6.15 53.35 0 91.05-37.7 37.7-37.7 37.7-91.05 0-53.3-37.7-91Q229.6 45 176.25 45z" id="moon_full20068-a"/></defs><use xlink:href="#moon_full20068-a"/></svg><svg xmlns:xlink="http://www.w3.org/1999/xlink" preserveAspectRatio="none" width="300" height="300" viewBox="0 0 350 350" id="moon_full20069" y="20400"><defs><path fill="#FFF" d="M176.25 45q-4.462 0-8.85.25-5.95 57.565-5.95 122.95 0 71.778 7.2 134.1 3.766.2 7.6.2 53.35 0 91.05-37.7 37.7-37.7 37.7-91.05 0-53.3-37.7-91Q229.6 45 176.25 45z" id="moon_full20069-a"/></defs><use xlink:href="#moon_full20069-a"/></svg><svg xmlns:xlink="http://www.w3.org/1999/xlink" preserveAspectRatio="none" width="300" height="300" viewBox="0 0 350 350" id="moon_full20070" y="20700"><defs><path fill="#FFF" d="M176.25 45q-5.387 0-10.65.35-6.8 57.618-6.8 123.55 0 71.566 8.05 133.3 4.643.3 9.4.3 53.35 0 91.05-37.7 37.7-37.7 37.7-91.05 0-53.3-37.7-91Q229.6 45 176.25 45z" id="moon_full20070-a"/></defs><use xlink:href="#moon_full20070-a"/></svg><svg xmlns:xlink="http://www.w3.org/1999/xlink" preserveAspectRatio="none" width="300" height="300" viewBox="0 0 350 350" id="moon_full20071" y="21000"><defs><path fill="#FFF" d="M176.25 45q-6.242 0-12.3.5-7.8 57.586-7.8 124.05 0 71.404 9.05 132.5 5.433.45 11.05.45 53.35 0 91.05-37.7 37.7-37.7 37.7-91.05 0-53.3-37.7-91Q229.6 45 176.25 45z" id="moon_full20071-a"/></defs><use xlink:href="#moon_full20071-a"/></svg><svg xmlns:xlink="http://www.w3.org/1999/xlink" preserveAspectRatio="none" width="300" height="300" viewBox="0 0 350 350" id="moon_full20072" y="21300"><defs><path fill="#FFF" d="M176.25 45q-6.885 0-13.5.6-8.25 57.477-8.25 124 0 71.428 9.5 132.35 6.023.55 12.25.55 53.35 0 91.05-37.7 37.7-37.7 37.7-91.05 0-53.3-37.7-91Q229.6 45 176.25 45z" id="moon_full20072-a"/></defs><use xlink:href="#moon_full20072-a"/></svg><svg xmlns:xlink="http://www.w3.org/1999/xlink" preserveAspectRatio="none" width="300" height="300" viewBox="0 0 350 350" id="moon_full20073" y="21600"><defs><path fill="#FFF" d="M267.3 82.75Q229.6 45 176.25 45q-7.524 0-14.75.75-8.65 57.301-8.65 123.85 0 71.482 10 132.25 6.57.65 13.4.65 53.35 0 91.05-37.7 37.7-37.7 37.7-91.05 0-53.3-37.7-91z" id="moon_full20073-a"/></defs><use xlink:href="#moon_full20073-a"/></svg><svg xmlns:xlink="http://www.w3.org/1999/xlink" preserveAspectRatio="none" width="300" height="300" viewBox="0 0 350 350" id="moon_full20074" y="21900"><defs><path fill="#FFF" d="M267.3 82.75Q229.6 45 176.25 45q-8.341 0-16.3.9-8.75 57.252-8.75 123.7 0 71.392 10.1 132.1 7.315.8 14.95.8 53.35 0 91.05-37.7 37.7-37.7 37.7-91.05 0-53.3-37.7-91z" id="moon_full20074-a"/></defs><use xlink:href="#moon_full20074-a"/></svg><svg xmlns:xlink="http://www.w3.org/1999/xlink" preserveAspectRatio="none" width="300" height="300" viewBox="0 0 350 350" id="moon_full20075" y="22200"><defs><path fill="#FFF" d="M267.3 82.75Q229.6 45 176.25 45q-9.17 0-17.9 1.1-8.8 57.163-8.8 123.5 0 71.29 10.15 131.95 8.097.95 16.55.95 53.35 0 91.05-37.7 37.7-37.7 37.7-91.05 0-53.3-37.7-91z" id="moon_full20075-a"/></defs><use xlink:href="#moon_full20075-a"/></svg><svg xmlns:xlink="http://www.w3.org/1999/xlink" preserveAspectRatio="none" width="300" height="300" viewBox="0 0 350 350" id="moon_full20076" y="22500"><defs><path fill="#FFF" d="M267.3 82.75Q229.6 45 176.25 45q-9.925 0-19.3 1.3-8.9 57.074-8.9 123.3 0 71.187 10.25 131.75 8.755 1.15 17.95 1.15 53.35 0 91.05-37.7 37.7-37.7 37.7-91.05 0-53.3-37.7-91z" id="moon_full20076-a"/></defs><use xlink:href="#moon_full20076-a"/></svg><svg xmlns:xlink="http://www.w3.org/1999/xlink" preserveAspectRatio="none" width="300" height="300" viewBox="0 0 350 350" id="moon_full20077" y="22800"><defs><path fill="#FFF" d="M267.3 82.75Q229.6 45 176.25 45q-10.684 0-20.75 1.5-8.95 56.996-8.95 123.1 0 71.076 10.35 131.6 9.407 1.3 19.35 1.3 53.35 0 91.05-37.7 37.7-37.7 37.7-91.05 0-53.3-37.7-91z" id="moon_full20077-a"/></defs><use xlink:href="#moon_full20077-a"/></svg><svg xmlns:xlink="http://www.w3.org/1999/xlink" preserveAspectRatio="none" width="300" height="300" viewBox="0 0 350 350" id="moon_full20078" y="23100"><defs><path fill="#FFF" d="M267.3 82.75Q229.6 45 176.25 45q-11.451 0-22.2 1.75-9.85 56.69-9.85 122.85 0 71.196 11.4 131.4 10.024 1.5 20.65 1.5 53.35 0 91.05-37.7 37.7-37.7 37.7-91.05 0-53.3-37.7-91z" id="moon_full20078-a"/></defs><use xlink:href="#moon_full20078-a"/></svg><svg xmlns:xlink="http://www.w3.org/1999/xlink" preserveAspectRatio="none" width="300" height="300" viewBox="0 0 350 350" id="moon_full20079" y="23400"><defs><path fill="#FFF" d="M267.3 82.75Q229.6 45 176.25 45q-12.189 0-23.55 1.95-10.9 56.415-10.9 122.65 0 71.325 12.6 131.2 10.59 1.7 21.85 1.7 53.35 0 91.05-37.7 37.7-37.7 37.7-91.05 0-53.3-37.7-91z" id="moon_full20079-a"/></defs><use xlink:href="#moon_full20079-a"/></svg><svg xmlns:xlink="http://www.w3.org/1999/xlink" preserveAspectRatio="none" width="300" height="300" viewBox="0 0 350 350" id="moon_full20080" y="23700"><defs><path fill="#FFF" d="M267.3 82.75Q229.6 45 176.25 45q-13.338 0-25.7 2.35-11.7 56.113-11.7 122.3 0 71.282 13.55 130.8 11.519 2.05 23.85 2.05 53.35 0 91.05-37.7 37.7-37.7 37.7-91.05 0-53.3-37.7-91z" id="moon_full20080-a"/></defs><use xlink:href="#moon_full20080-a"/></svg><svg xmlns:xlink="http://www.w3.org/1999/xlink" preserveAspectRatio="none" width="300" height="300" viewBox="0 0 350 350" id="moon_full20081" y="24000"><defs><path fill="#FFF" d="M267.3 82.75Q229.6 45 176.25 45q-14.48 0-27.8 2.8-12.6 55.746-12.6 121.85 0 71.268 14.6 130.45 12.425 2.4 25.8 2.4 53.35 0 91.05-37.7 37.7-37.7 37.7-91.05 0-53.3-37.7-91z" id="moon_full20081-a"/></defs><use xlink:href="#moon_full20081-a"/></svg><svg xmlns:xlink="http://www.w3.org/1999/xlink" preserveAspectRatio="none" width="300" height="300" viewBox="0 0 350 350" id="moon_full20082" y="24300"><defs><path fill="#FFF" d="M267.3 82.75Q229.6 45 176.25 45q-14.993 0-28.75 2.95-13.4 55.56-13.4 121.7 0 71.362 15.55 130.3 12.794 2.55 26.6 2.55 53.35 0 91.05-37.7 37.7-37.7 37.7-91.05 0-53.3-37.7-91z" id="moon_full20082-a"/></defs><use xlink:href="#moon_full20082-a"/></svg><svg xmlns:xlink="http://www.w3.org/1999/xlink" preserveAspectRatio="none" width="300" height="300" viewBox="0 0 350 350" id="moon_full20083" y="24600"><defs><path fill="#FFF" d="M267.3 82.75Q229.6 45 176.25 45q-15.485 0-29.65 3.15-14.3 55.315-14.3 121.5 0 71.467 16.65 130.15 13.099 2.7 27.3 2.7 53.35 0 91.05-37.7 37.7-37.7 37.7-91.05 0-53.3-37.7-91z" id="moon_full20083-a"/></defs><use xlink:href="#moon_full20083-a"/></svg><svg xmlns:xlink="http://www.w3.org/1999/xlink" preserveAspectRatio="none" width="300" height="300" viewBox="0 0 350 350" id="moon_full20084" y="24900"><defs><path fill="#FFF" d="M267.3 82.75Q229.6 45 176.25 45q-15.96 0-30.55 3.35-15.8 54.957-15.8 121.3 0 71.731 18.45 130.05 13.382 2.8 27.9 2.8 53.35 0 91.05-37.7 37.7-37.7 37.7-91.05 0-53.3-37.7-91z" id="moon_full20084-a"/></defs><use xlink:href="#moon_full20084-a"/></svg><svg xmlns:xlink="http://www.w3.org/1999/xlink" preserveAspectRatio="none" width="300" height="300" viewBox="0 0 350 350" id="moon_full20085" y="25200"><defs><path fill="#FFF" d="M267.3 82.75Q229.6 45 176.25 45q-16.3 0-31.15 3.5-17.6 54.597-17.6 121.15 0 72.053 20.6 130 13.486 2.85 28.15 2.85 53.35 0 91.05-37.7 37.7-37.7 37.7-91.05 0-53.3-37.7-91z" id="moon_full20085-a"/></defs><use xlink:href="#moon_full20085-a"/></svg><svg xmlns:xlink="http://www.w3.org/1999/xlink" preserveAspectRatio="none" width="300" height="300" viewBox="0 0 350 350" id="moon_full20086" y="25500"><defs><path fill="#FFF" d="M267.3 82.75Q229.6 45 176.25 45q-16.919 0-32.3 3.8-18.45 54.34-18.45 120.9 0 72.063 21.65 129.75 13.915 3.05 29.1 3.05 53.35 0 91.05-37.7 37.7-37.7 37.7-91.05 0-53.3-37.7-91z" id="moon_full20086-a"/></defs><use xlink:href="#moon_full20086-a"/></svg><svg xmlns:xlink="http://www.w3.org/1999/xlink" preserveAspectRatio="none" width="300" height="300" viewBox="0 0 350 350" id="moon_full20087" y="25800"><defs><path fill="#FFF" d="M267.3 82.75Q229.6 45 176.25 45q-17.514 0-33.35 4.05-19.4 54.124-19.4 120.65 0 72.1 22.75 129.55 14.338 3.25 30 3.25 53.35 0 91.05-37.7 37.7-37.7 37.7-91.05 0-53.3-37.7-91z" id="moon_full20087-a"/></defs><use xlink:href="#moon_full20087-a"/></svg><svg xmlns:xlink="http://www.w3.org/1999/xlink" preserveAspectRatio="none" width="300" height="300" viewBox="0 0 350 350" id="moon_full20088" y="26100"><defs><path fill="#FFF" d="M267.3 82.75Q229.6 45 176.25 45q-18.322 0-34.8 4.45Q122 103.41 122 169.7q0 71.894 22.85 129.2 14.96 3.6 31.4 3.6 53.35 0 91.05-37.7 37.7-37.7 37.7-91.05 0-53.3-37.7-91z" id="moon_full20088-a"/></defs><use xlink:href="#moon_full20088-a"/></svg><svg xmlns:xlink="http://www.w3.org/1999/xlink" preserveAspectRatio="none" width="300" height="300" viewBox="0 0 350 350" id="moon_full20089" y="26400"><defs><path fill="#FFF" d="M267.3 82.75Q229.6 45 176.25 45q-19.138 0-36.3 4.85-19.45 53.81-19.45 119.85 0 71.672 22.9 128.85 15.624 3.95 32.85 3.95 53.35 0 91.05-37.7 37.7-37.7 37.7-91.05 0-53.3-37.7-91z" id="moon_full20089-a"/></defs><use xlink:href="#moon_full20089-a"/></svg><svg xmlns:xlink="http://www.w3.org/1999/xlink" preserveAspectRatio="none" width="300" height="300" viewBox="0 0 350 350" id="moon_full20090" y="26700"><defs><path fill="#FFF" d="M267.3 82.75Q229.6 45 176.25 45q-19.35 0-36.65 4.95-20.8 53.6-20.8 119.8 0 71.854 24.5 128.75 15.66 4 32.95 4 53.35 0 91.05-37.7 37.7-37.7 37.7-91.05 0-53.3-37.7-91z" id="moon_full20090-a"/></defs><use xlink:href="#moon_full20090-a"/></svg><svg xmlns:xlink="http://www.w3.org/1999/xlink" preserveAspectRatio="none" width="300" height="300" viewBox="0 0 350 350" id="moon_full20091" y="27000"><defs><path fill="#FFF" d="M267.3 82.75Q229.6 45 176.25 45q-19.529 0-37 5.05-22.2 53.347-22.2 119.7 0 72.108 26.25 128.75 15.66 4 32.95 4 53.35 0 91.05-37.7 37.7-37.7 37.7-91.05 0-53.3-37.7-91z" id="moon_full20091-a"/></defs><use xlink:href="#moon_full20091-a"/></svg><svg xmlns:xlink="http://www.w3.org/1999/xlink" preserveAspectRatio="none" width="300" height="300" viewBox="0 0 350 350" id="moon_full20092" y="27300"><defs><path fill="#FFF" d="M267.3 82.75Q229.6 45 176.25 45q-19.552 0-37 5.05-23.95 53.139-23.95 119.75 0 72.404 28.3 128.8 15.531 3.9 32.65 3.9 53.35 0 91.05-37.7 37.7-37.7 37.7-91.05 0-53.3-37.7-91z" id="moon_full20092-a"/></defs><use xlink:href="#moon_full20092-a"/></svg><svg xmlns:xlink="http://www.w3.org/1999/xlink" preserveAspectRatio="none" width="300" height="300" viewBox="0 0 350 350" id="moon_full20093" y="27600"><defs><path fill="#FFF" d="M267.3 82.75Q229.6 45 176.25 45q-19.486 0-36.9 5.05-25.85 52.863-25.85 119.75 0 72.802 30.65 128.95 15.286 3.75 32.1 3.75 53.35 0 91.05-37.7 37.7-37.7 37.7-91.05 0-53.3-37.7-91z" id="moon_full20093-a"/></defs><use xlink:href="#moon_full20093-a"/></svg><svg xmlns:xlink="http://www.w3.org/1999/xlink" preserveAspectRatio="none" width="300" height="300" viewBox="0 0 350 350" id="moon_full20094" y="27900"><defs><path fill="#FFF" d="M267.3 82.75Q229.6 45 176.25 45q-20.868 0-39.35 5.75-25.85 52.632-25.85 119.05 0 72.41 30.75 128.35 16.33 4.35 34.45 4.35 53.35 0 91.05-37.7 37.7-37.7 37.7-91.05 0-53.3-37.7-91z" id="moon_full20094-a"/></defs><use xlink:href="#moon_full20094-a"/></svg><svg xmlns:xlink="http://www.w3.org/1999/xlink" preserveAspectRatio="none" width="300" height="300" viewBox="0 0 350 350" id="moon_full20095" y="28200"><defs><path fill="#FFF" d="M267.3 82.75Q229.6 45 176.25 45q-22.304 0-41.9 6.6-25.8 52.302-25.8 118.2 0 71.972 30.85 127.65 17.378 5.05 36.85 5.05 53.35 0 91.05-37.7 37.7-37.7 37.7-91.05 0-53.3-37.7-91z" id="moon_full20095-a"/></defs><use xlink:href="#moon_full20095-a"/></svg><svg xmlns:xlink="http://www.w3.org/1999/xlink" preserveAspectRatio="none" width="300" height="300" viewBox="0 0 350 350" id="moon_full20096" y="28500"><defs><path fill="#FFF" d="M267.3 82.75Q229.6 45 176.25 45q-23.616 0-44.2 7.4-26.65 51.891-26.65 117.4 0 71.764 32 127.05 18.271 5.65 38.85 5.65 53.35 0 91.05-37.7 37.7-37.7 37.7-91.05 0-53.3-37.7-91z" id="moon_full20096-a"/></defs><use xlink:href="#moon_full20096-a"/></svg><svg xmlns:xlink="http://www.w3.org/1999/xlink" preserveAspectRatio="none" width="300" height="300" viewBox="0 0 350 350" id="moon_full20097" y="28800"><defs><path fill="#FFF" d="M267.3 82.75Q229.6 45 176.25 45q-24.962 0-46.5 8.25-27.5 51.447-27.5 116.55 0 71.511 33.2 126.45 19.117 6.25 40.8 6.25 53.35 0 91.05-37.7 37.7-37.7 37.7-91.05 0-53.3-37.7-91z" id="moon_full20097-a"/></defs><use xlink:href="#moon_full20097-a"/></svg><svg xmlns:xlink="http://www.w3.org/1999/xlink" preserveAspectRatio="none" width="300" height="300" viewBox="0 0 350 350" id="moon_full20098" y="29100"><defs><path fill="#FFF" d="M267.3 82.75Q229.6 45 176.25 45q-26.831 0-49.7 9.55-27.1 50.96-27.1 115.25 0 70.821 32.9 125.4 20.446 7.3 43.9 7.3 53.35 0 91.05-37.7 37.7-37.7 37.7-91.05 0-53.3-37.7-91z" id="moon_full20098-a"/></defs><use xlink:href="#moon_full20098-a"/></svg><svg xmlns:xlink="http://www.w3.org/1999/xlink" preserveAspectRatio="none" width="300" height="300" viewBox="0 0 350 350" id="moon_full20099" y="29400"><defs><path fill="#FFF" d="M267.3 82.75Q229.6 45 176.25 45q-28.81 0-53.1 11Q96.6 106.433 96.6 169.8q0 70.034 32.5 124.15 21.82 8.55 47.15 8.55 53.35 0 91.05-37.7 37.7-37.7 37.7-91.05 0-53.3-37.7-91z" id="moon_full20099-a"/></defs><use xlink:href="#moon_full20099-a"/></svg><svg xmlns:xlink="http://www.w3.org/1999/xlink" preserveAspectRatio="none" width="300" height="300" viewBox="0 0 350 350" id="moon_full20100" y="29700"><defs><path fill="#FFF" d="M267.3 82.75Q229.6 45 176.25 45q-30.353 0-55.65 12.25-25.95 49.944-25.95 112.55 0 69.365 31.9 123.15 22.87 9.55 49.7 9.55 53.35 0 91.05-37.7 37.7-37.7 37.7-91.05 0-53.3-37.7-91z" id="moon_full20100-a"/></defs><use xlink:href="#moon_full20100-a"/></svg><svg xmlns:xlink="http://www.w3.org/1999/xlink" preserveAspectRatio="none" width="300" height="300" viewBox="0 0 350 350" id="moon_full20101" y="30000"><defs><path fill="#FFF" d="M267.3 82.75Q229.6 45 176.25 45q-31.936 0-58.3 13.55Q92.7 108.013 92.7 169.8q0 68.637 31.2 122 23.98 10.7 52.35 10.7 53.35 0 91.05-37.7 37.7-37.7 37.7-91.05 0-53.3-37.7-91z" id="moon_full20101-a"/></defs><use xlink:href="#moon_full20101-a"/></svg><svg xmlns:xlink="http://www.w3.org/1999/xlink" preserveAspectRatio="none" width="300" height="300" viewBox="0 0 350 350" id="moon_full20102" y="30300"><defs><path fill="#FFF" d="M267.3 82.75Q229.6 45 176.25 45q-32.774 0-59.65 14.25-26.15 49.054-26.15 110.55 0 68.597 32.55 121.6 24.322 11.1 53.25 11.1 53.35 0 91.05-37.7 37.7-37.7 37.7-91.05 0-53.3-37.7-91z" id="moon_full20102-a"/></defs><use xlink:href="#moon_full20102-a"/></svg><svg xmlns:xlink="http://www.w3.org/1999/xlink" preserveAspectRatio="none" width="300" height="300" viewBox="0 0 350 350" id="moon_full20103" y="30600"><defs><path fill="#FFF" d="M267.3 82.75Q229.6 45 176.25 45q-33.62 0-61.05 15-27.05 48.606-27.05 109.8 0 68.554 33.95 121.2 24.705 11.5 54.15 11.5 53.35 0 91.05-37.7 37.7-37.7 37.7-91.05 0-53.3-37.7-91z" id="moon_full20103-a"/></defs><use xlink:href="#moon_full20103-a"/></svg><svg xmlns:xlink="http://www.w3.org/1999/xlink" preserveAspectRatio="none" width="300" height="300" viewBox="0 0 350 350" id="moon_full20104" y="30900"><defs><path fill="#FFF" d="M267.3 82.75Q229.6 45 176.25 45q-35.07 0-63.4 16.35-26.9 48.33-26.9 109.1 0 67.062 32.75 118.9 26.067 13.15 57.55 13.15 53.35 0 91.05-37.7 37.7-37.7 37.7-91.05 0-53.3-37.7-91z" id="moon_full20104-a"/></defs><use xlink:href="#moon_full20104-a"/></svg><svg xmlns:xlink="http://www.w3.org/1999/xlink" preserveAspectRatio="none" width="300" height="300" viewBox="0 0 350 350" id="moon_full20105" y="31200"><defs><path fill="#FFF" d="M267.3 82.75Q229.6 45 176.25 45q-36.575 0-65.8 17.75-26.7 48.072-26.7 108.35 0 65.46 31.45 116.4 27.44 15 61.05 15 53.35 0 91.05-37.7 37.7-37.7 37.7-91.05 0-53.3-37.7-91z" id="moon_full20105-a"/></defs><use xlink:href="#moon_full20105-a"/></svg><svg xmlns:xlink="http://www.w3.org/1999/xlink" preserveAspectRatio="none" width="300" height="300" viewBox="0 0 350 350" id="moon_full20106" y="31500"><defs><path fill="#FFF" d="M267.3 82.75Q229.6 45 176.25 45q-37.805 0-67.8 19-26.2 47.585-26.2 107.1 0 64.777 31.05 115.35 28.17 16.05 62.95 16.05 53.35 0 91.05-37.7 37.7-37.7 37.7-91.05 0-53.3-37.7-91z" id="moon_full20106-a"/></defs><use xlink:href="#moon_full20106-a"/></svg><svg xmlns:xlink="http://www.w3.org/1999/xlink" preserveAspectRatio="none" width="300" height="300" viewBox="0 0 350 350" id="moon_full20107" y="31800"><defs><path fill="#FFF" d="M267.3 82.75Q229.6 45 176.25 45q-39.076 0-69.8 20.3-25.7 47.094-25.7 105.8 0 64.052 30.6 114.2 28.91 17.2 64.9 17.2 53.35 0 91.05-37.7 37.7-37.7 37.7-91.05 0-53.3-37.7-91z" id="moon_full20107-a"/></defs><use xlink:href="#moon_full20107-a"/></svg><svg xmlns:xlink="http://www.w3.org/1999/xlink" preserveAspectRatio="none" width="300" height="300" viewBox="0 0 350 350" id="moon_full20108" y="32100"><defs><path fill="#FFF" d="M267.3 82.75Q229.6 45 176.25 45q-40.937 0-72.7 22.25-24.9 46.375-24.9 103.85 0 62.942 29.9 112.45 29.931 18.95 67.7 18.95 53.35 0 91.05-37.7 37.7-37.7 37.7-91.05 0-53.3-37.7-91z" id="moon_full20108-a"/></defs><use xlink:href="#moon_full20108-a"/></svg><svg xmlns:xlink="http://www.w3.org/1999/xlink" preserveAspectRatio="none" width="300" height="300" viewBox="0 0 350 350" id="moon_full20109" y="32400"><defs><path fill="#FFF" d="M267.3 82.75Q229.6 45 176.25 45q-42.886 0-75.7 24.45-24 45.516-24 101.65 0 61.726 29.05 110.55 31.013 20.85 70.65 20.85 53.35 0 91.05-37.7 37.7-37.7 37.7-91.05 0-53.3-37.7-91z" id="moon_full20109-a"/></defs><use xlink:href="#moon_full20109-a"/></svg><svg xmlns:xlink="http://www.w3.org/1999/xlink" preserveAspectRatio="none" width="300" height="300" viewBox="0 0 350 350" id="moon_full20110" y="32700"><defs><path fill="#FFF" d="M267.3 82.75Q229.6 45 176.25 45q-46.737 0-81.5 29Q73 116.462 73 171q0 60.972 27.2 106.8 32.924 24.7 76.05 24.7 53.35 0 91.05-37.7 37.7-37.7 37.7-91.05 0-53.3-37.7-91z" id="moon_full20110-a"/></defs><use xlink:href="#moon_full20110-a"/></svg><svg xmlns:xlink="http://www.w3.org/1999/xlink" preserveAspectRatio="none" width="300" height="300" viewBox="0 0 350 350" id="moon_full20111" y="33000"><defs><path fill="#FFF" d="M267.3 82.75Q229.6 45 176.25 45 129.016 45 94 74.65 72.2 116.83 72.2 171q0 60.75 27.4 106.35 33.137 25.15 76.65 25.15 53.35 0 91.05-37.7 37.7-37.7 37.7-91.05 0-53.3-37.7-91z" id="moon_full20111-a"/></defs><use xlink:href="#moon_full20111-a"/></svg><svg xmlns:xlink="http://www.w3.org/1999/xlink" preserveAspectRatio="none" width="300" height="300" viewBox="0 0 350 350" id="moon_full20112" y="33300"><defs><path fill="#FFF" d="M267.3 82.75Q229.6 45 176.25 45q-47.753 0-83 30.3Q71.4 117.194 71.4 171q0 60.452 27.6 105.9 33.329 25.6 77.25 25.6 53.35 0 91.05-37.7 37.7-37.7 37.7-91.05 0-53.3-37.7-91z" id="moon_full20112-a"/></defs><use xlink:href="#moon_full20112-a"/></svg><svg xmlns:xlink="http://www.w3.org/1999/xlink" preserveAspectRatio="none" width="300" height="300" viewBox="0 0 350 350" id="moon_full20113" y="33600"><defs><path fill="#FFF" d="M267.3 82.75Q229.6 45 176.25 45 128 45 92.5 75.9q-21.9 41.698-21.9 95.15 0 60.21 27.85 105.45 33.53 26 77.8 26 53.35 0 91.05-37.7 37.7-37.7 37.7-91.05 0-53.3-37.7-91z" id="moon_full20113-a"/></defs><use xlink:href="#moon_full20113-a"/></svg><svg xmlns:xlink="http://www.w3.org/1999/xlink" preserveAspectRatio="none" width="300" height="300" viewBox="0 0 350 350" id="moon_full20114" y="33900"><defs><path fill="#FFF" d="M267.3 82.75Q229.6 45 176.25 45q-48.789 0-84.5 31.6-21.95 41.388-21.95 94.45 0 59.9 28.05 104.95 33.714 26.5 78.4 26.5 53.35 0 91.05-37.7 37.7-37.7 37.7-91.05 0-53.3-37.7-91z" id="moon_full20114-a"/></defs><use xlink:href="#moon_full20114-a"/></svg><svg xmlns:xlink="http://www.w3.org/1999/xlink" preserveAspectRatio="none" width="300" height="300" viewBox="0 0 350 350" id="moon_full20115" y="34200"><defs><path fill="#FFF" d="M267.3 82.75Q229.6 45 176.25 45q-49.327 0-85.3 32.3Q69 118.408 69 171.05q0 59.655 28.2 104.45 33.96 27 79.05 27 53.35 0 91.05-37.7 37.7-37.7 37.7-91.05 0-53.3-37.7-91z" id="moon_full20115-a"/></defs><use xlink:href="#moon_full20115-a"/></svg><svg xmlns:xlink="http://www.w3.org/1999/xlink" preserveAspectRatio="none" width="300" height="300" viewBox="0 0 350 350" id="moon_full20116" y="34500"><defs><path fill="#FFF" d="M267.3 82.75Q229.6 45 176.25 45q-50.34 0-86.8 33.65-21.7 40.558-21.7 92.4 0 59.084 28.25 103.5 34.351 27.95 80.25 27.95 53.35 0 91.05-37.7 37.7-37.7 37.7-91.05 0-53.3-37.7-91z" id="moon_full20116-a"/></defs><use xlink:href="#moon_full20116-a"/></svg><svg xmlns:xlink="http://www.w3.org/1999/xlink" preserveAspectRatio="none" width="300" height="300" viewBox="0 0 350 350" id="moon_full20117" y="34800"><defs><path fill="#FFF" d="M267.3 82.75Q229.6 45 176.25 45q-51.456 0-88.4 35.15-21.4 39.989-21.4 90.9 0 58.36 28.15 102.3 34.802 29.15 81.65 29.15 53.35 0 91.05-37.7 37.7-37.7 37.7-91.05 0-53.3-37.7-91z" id="moon_full20117-a"/></defs><use xlink:href="#moon_full20117-a"/></svg><svg xmlns:xlink="http://www.w3.org/1999/xlink" preserveAspectRatio="none" width="300" height="300" viewBox="0 0 350 350" id="moon_full20118" y="35100"><defs><path fill="#FFF" d="M267.3 82.75Q229.6 45 176.25 45q-52.574 0-90 36.7Q65.2 121.054 65.2 171q0 57.721 28.1 101.25 35.23 30.25 82.95 30.25 53.35 0 91.05-37.7 37.7-37.7 37.7-91.05 0-53.3-37.7-91z" id="moon_full20118-a"/></defs><use xlink:href="#moon_full20118-a"/></svg><svg xmlns:xlink="http://www.w3.org/1999/xlink" preserveAspectRatio="none" width="300" height="300" viewBox="0 0 350 350" id="moon_full20119" y="35400"><defs><path fill="#FFF" d="M267.3 82.75Q229.6 45 176.25 45q-53.3 0-91 37.75l-.75.75Q63.9 122.12 63.9 171q0 56.94 27.9 99.95 35.718 31.55 84.45 31.55 53.35 0 91.05-37.7 37.7-37.7 37.7-91.05 0-53.3-37.7-91z" id="moon_full20119-a"/></defs><use xlink:href="#moon_full20119-a"/></svg><svg xmlns:xlink="http://www.w3.org/1999/xlink" preserveAspectRatio="none" width="300" height="300" viewBox="0 0 350 350" id="moon_full20120" y="35700"><defs><path fill="#FFF" d="M267.3 82.75Q229.6 45 176.25 45q-53.3 0-91 37.75l-1.7 1.7q-20.6 38.218-20.6 86.55 0 56.677 28.3 99.45 35.87 32.05 85 32.05 53.35 0 91.05-37.7 37.7-37.7 37.7-91.05 0-53.3-37.7-91z" id="moon_full20120-a"/></defs><use xlink:href="#moon_full20120-a"/></svg><svg xmlns:xlink="http://www.w3.org/1999/xlink" preserveAspectRatio="none" width="300" height="300" viewBox="0 0 350 350" id="moon_full20121" y="36000"><defs><path fill="#FFF" d="M267.3 82.75Q229.6 45 176.25 45q-53.3 0-91 37.75-1.297 1.296-2.55 2.6Q62 123.213 62 171.05q0 56.424 28.75 98.95 36.036 32.5 85.5 32.5 53.35 0 91.05-37.7 37.7-37.7 37.7-91.05 0-53.3-37.7-91z" id="moon_full20121-a"/></defs><use xlink:href="#moon_full20121-a"/></svg><svg xmlns:xlink="http://www.w3.org/1999/xlink" preserveAspectRatio="none" width="300" height="300" viewBox="0 0 350 350" id="moon_full20122" y="36300"><defs><path fill="#FFF" d="M267.3 82.75Q229.6 45 176.25 45q-53.3 0-91 37.75-1.874 1.872-3.65 3.75Q61 123.899 61 171.05q0 56.188 29.25 98.5 36.184 32.95 86 32.95 53.35 0 91.05-37.7 37.7-37.7 37.7-91.05 0-53.3-37.7-91z" id="moon_full20122-a"/></defs><use xlink:href="#moon_full20122-a"/></svg><svg xmlns:xlink="http://www.w3.org/1999/xlink" preserveAspectRatio="none" width="300" height="300" viewBox="0 0 350 350" id="moon_full20123" y="36600"><defs><path fill="#FFF" d="M267.3 82.75Q229.6 45 176.25 45q-53.3 0-91 37.75-2.42 2.417-4.7 4.9-20.5 36.905-20.5 83.4 0 55.938 29.65 98 36.358 33.45 86.55 33.45 53.35 0 91.05-37.7 37.7-37.7 37.7-91.05 0-53.3-37.7-91z" id="moon_full20123-a"/></defs><use xlink:href="#moon_full20123-a"/></svg><svg xmlns:xlink="http://www.w3.org/1999/xlink" preserveAspectRatio="none" width="300" height="300" viewBox="0 0 350 350" id="moon_full20124" y="36900"><defs><path fill="#FFF" d="M267.3 82.75Q229.6 45 176.25 45q-53.3 0-91 37.75-3.936 3.93-7.45 8-19.35 35.74-19.35 80.3 0 54.54 28.85 95.8 37.115 35.65 88.95 35.65 53.35 0 91.05-37.7 37.7-37.7 37.7-91.05 0-53.3-37.7-91z" id="moon_full20124-a"/></defs><use xlink:href="#moon_full20124-a"/></svg><svg xmlns:xlink="http://www.w3.org/1999/xlink" preserveAspectRatio="none" width="300" height="300" viewBox="0 0 350 350" id="moon_full20125" y="37200"><defs><path fill="#FFF" d="M267.3 82.75Q229.6 45 176.25 45q-53.3 0-91 37.75Q79.5 88.492 74.6 94.6q-17.8 34.214-17.8 76.45 0 52.791 27.75 93.05l.7.7q37.7 37.7 91 37.7 53.35 0 91.05-37.7 37.7-37.7 37.7-91.05 0-53.3-37.7-91z" id="moon_full20125-a"/></defs><use xlink:href="#moon_full20125-a"/></svg><svg xmlns:xlink="http://www.w3.org/1999/xlink" preserveAspectRatio="none" width="300" height="300" viewBox="0 0 350 350" id="moon_full20126" y="37500"><defs><path fill="#FFF" d="M267.3 82.75Q229.6 45 176.25 45q-53.3 0-91 37.75Q77.433 90.557 71.2 99q-16 32.51-16 72.05 0 50.822 26.4 89.95 1.783 1.936 3.65 3.8 37.7 37.7 91 37.7 53.35 0 91.05-37.7 37.7-37.7 37.7-91.05 0-53.3-37.7-91z" id="moon_full20126-a"/></defs><use xlink:href="#moon_full20126-a"/></svg><svg xmlns:xlink="http://www.w3.org/1999/xlink" preserveAspectRatio="none" width="300" height="300" viewBox="0 0 350 350" id="moon_full20127" y="37800"><defs><path fill="#FFF" d="M267.3 82.75Q229.6 45 176.25 45q-53.3 0-91 37.75-10.436 10.422-18 22-13.7 30.199-13.7 66.3 0 48.33 24.5 86 3.41 3.965 7.2 7.75 37.7 37.7 91 37.7 53.35 0 91.05-37.7 37.7-37.7 37.7-91.05 0-53.3-37.7-91z" id="moon_full20127-a"/></defs><use xlink:href="#moon_full20127-a"/></svg><svg xmlns:xlink="http://www.w3.org/1999/xlink" preserveAspectRatio="none" width="300" height="300" viewBox="0 0 350 350" id="moon_full20128" y="38100"><defs><path fill="#FFF" d="M267.3 82.75Q229.6 45 176.25 45q-53.3 0-91 37.75-12.475 12.459-20.85 26.6-11.7 28.323-11.7 61.7 0 45.672 21.85 81.85 4.923 6.13 10.7 11.9 37.7 37.7 91 37.7 53.35 0 91.05-37.7 37.7-37.7 37.7-91.05 0-53.3-37.7-91z" id="moon_full20128-a"/></defs><use xlink:href="#moon_full20128-a"/></svg><svg xmlns:xlink="http://www.w3.org/1999/xlink" preserveAspectRatio="none" width="300" height="300" viewBox="0 0 350 350" id="moon_full20129" y="38400"><defs><path fill="#FFF" d="M267.3 82.75Q229.6 45 176.25 45q-53.3 0-91 37.75Q70.67 97.31 61.7 114.2q-9.8 26.296-9.8 56.85 0 42.915 19.3 77.45 6.222 8.483 14.05 16.3 37.7 37.7 91 37.7 53.35 0 91.05-37.7 37.7-37.7 37.7-91.05 0-53.3-37.7-91z" id="moon_full20129-a"/></defs><use xlink:href="#moon_full20129-a"/></svg><svg xmlns:xlink="http://www.w3.org/1999/xlink" preserveAspectRatio="none" width="300" height="300" viewBox="0 0 350 350" id="moon_full20130" y="38700"><defs><path fill="#FFF" d="M267.3 82.75Q229.6 45 176.25 45q-53.3 0-91 37.75Q68.184 99.794 58.8 120q-7.75 23.853-7.75 51.05 0 39.634 16.45 72.1 7.495 11.409 17.75 21.65 37.7 37.7 91 37.7 53.35 0 91.05-37.7 37.7-37.7 37.7-91.05 0-53.3-37.7-91z" id="moon_full20130-a"/></defs><use xlink:href="#moon_full20130-a"/></svg><svg xmlns:xlink="http://www.w3.org/1999/xlink" preserveAspectRatio="none" width="300" height="300" viewBox="0 0 350 350" id="moon_full20131" y="39000"><defs><path fill="#FFF" d="M305 173.75q0-53.3-37.7-91Q229.6 45 176.25 45q-53.3 0-91 37.75-37.75 37.7-37.75 91 0 53.35 37.75 91.05 37.7 37.7 91 37.7 53.35 0 91.05-37.7 37.7-37.7 37.7-91.05z" id="moon_full20131-a"/></defs><use xlink:href="#moon_full20131-a"/></svg><svg xmlns:xlink="http://www.w3.org/1999/xlink" preserveAspectRatio="none" width="300" height="300" viewBox="0 0 350 350" id="moon_full20132" y="39300"><defs><path fill="#FFF" d="M305 173.75q0-53.3-37.7-91Q229.6 45 176.25 45q-53.3 0-91 37.75-37.75 37.7-37.75 91 0 53.35 37.75 91.05 37.7 37.7 91 37.7 53.35 0 91.05-37.7 37.7-37.7 37.7-91.05z" id="moon_full20132-a"/></defs><use xlink:href="#moon_full20132-a"/></svg></svg>
