<?xml version="1.0" encoding="UTF-8"?><svg id="_イヤー_2" xmlns="http://www.w3.org/2000/svg" width="277.14075" height="277.14075" viewBox="0 0 277.14075 277.14075"><defs><style>.cls-1{fill:none;}</style></defs><g id="_イヤー_1-2"><g><g><g><path d="M137.62689,90.67765c-.27815,0-.51063-.23041-.51063-.51063v-.20342c0-.28023,.23248-.51063,.51063-.51063h6.34764v-12.03312h-9.45711c-.02496,.0768-.02496,.1287-.02496,.2055l-2.47424,13.96979c-.04982,.25324-.27815,.40685-.51063,.40685h-.09964l-.56045-.0768c-.25739-.04982-.411-.28023-.411-.50856v-.10171l2.54902-14.65894v-6.67976c0-.66216,.411-.96937,.89257-.96937h10.8105c.61027,0,.89257,.43383,.89257,.96937v19.73207c0,.58536-.2823,.96937-.89257,.96937h-7.0617Zm6.34764-20.47104h-9.38239v2.57393h9.38239v-2.57393Zm0,3.79862h-9.38239v2.19199h9.38239v-2.19199Z"/><path d="M130.07946,132.36492c-.27815,0-.50648-.23248-.50648-.51063v-.20342c0-.2823,.22833-.53554,.50648-.53554h4.81989c.2823,0,.51063,.25324,.51063,.53554v.20342c0,.27815-.22833,.51063-.51063,.51063h-4.81989Zm.411,2.49505c-.30721,0-.53554-.22833-.53554-.50648v-.20757c0-.27815,.22833-.50648,.53554-.50648h3.79862c.27815,0,.50648,.22833,.50648,.50648v.20757c0,.27815-.22833,.50648-.50648,.50648h-3.79862Zm0-4.89462c-.2823,0-.51063-.22833-.51063-.53554v-.17851c0-.30306,.22833-.53554,.51063-.53554h3.82353c.27815,0,.51063,.23248,.51063,.53554v.17851c0,.30721-.23248,.53554-.51063,.53554h-3.82353Zm.02491,7.36891c-.2823,0-.51063-.22833-.51063-.51063v-.20342c0-.2823,.22833-.51063,.51063-.51063h3.82353c.27815,0,.51063,.22833,.51063,.51063v.20342c0,.2823-.23248,.51063-.51063,.51063h-3.82353Zm.35703,11.82762c-.63933,0-.84275-.25324-.84275-.99221v-8.71815c0-.58951,.43591-.94654,.84275-.94654h3.36271c.53554,0,.94654,.35703,.94654,.94654v8.71815c0,.63518-.35703,.99221-.94654,.99221h-3.36271Zm2.80226-9.4073h-2.16708v8.1826h2.16708v-8.1826Zm2.60299,6.93715c-.23248-.05397-.35703-.25739-.35703-.48573,0-.04982,0-.10379,.02491-.15361l3.10947-10.2459h-2.65281c-.27815,0-.50648-.23248-.50648-.51063v-.20342c0-.30721,.22833-.53554,.50648-.53554h3.28799c.68915,0,1.04618,.25324,1.04618,.76388,0,.1287-.02491,.27815-.07473,.43176l-3.26308,10.78559c-.04982,.20342-.2823,.35703-.51063,.35703-.02491,0-.07473,0-.1287-.02491l-.48157-.17851Zm14.55515,1.57757c-.10379,.07888-.20342,.10379-.30721,.10379-.15361,0-.27815-.07888-.38194-.22833l-7.44364-11.42077v13.30555c0,.63933-.30721,1.07109-.86766,1.07109h-4.23038c-.2823,0-.51063-.22833-.51063-.51063v-.20342c0-.2823,.22833-.51063,.51063-.51063h3.62011v-17.10417h-4.00204c-.2823,0-.51063-.22833-.51063-.51063v-.20342c0-.2823,.22833-.51063,.51063-.51063h4.53759c.53554,0,.94239,.35703,.94239,1.02127v1.42812l1.22469,1.88478,3.4665-3.26308c.09964-.10379,.22833-.15361,.35703-.15361,.15361,0,.27815,.04982,.38194,.17851l.2823,.35703c.09964,.10379,.14945,.22833,.14945,.35703s-.07473,.2823-.17851,.38194l-3.62011,3.41668,6.60503,10.04247c.04982,.07888,.07473,.20757,.07473,.30721,0,.17851-.04982,.35703-.20342,.46082l-.40685,.30306Zm-8.61851-17.61481c-.07473,.15361-.22833,.22833-.40685,.22833-.07473,0-.17851-.02491-.25324-.07473l-2.85623-1.70627c-.15361-.07888-.22833-.23248-.22833-.411,0-.07473,.02491-.17851,.07473-.25324l.25739-.38194c.09964-.15361,.25324-.22833,.40685-.22833,.07473,0,.17851,.02491,.25324,.07473l2.85623,1.68136c.15361,.10379,.22833,.25739,.22833,.40685,0,.07888-.02491,.17851-.07473,.25739l-.25739,.40685Z"/><path d="M139.36221,207.9305c-.20342-.07473-.33212-.2823-.33212-.48573,0-.07473,0-.12454,.02491-.17851l2.70263-7.36476v-5.55886h-4.00204v9.73942c0,.66009-.35703,.99221-1.04618,.99221h-2.95587c-.71406,0-1.02127-.33212-1.02127-.99221v-9.99266c0-.48573,.43176-.97145,1.02127-.97145h2.54902v-1.98857h-4.28435c-.27815,0-.51063-.22833-.51063-.51063v-.20342c0-.27815,.23248-.50648,.51063-.50648h4.58741c.74312,0,1.14997,.43176,1.14997,1.17072v2.03839h4.00204v-2.70263c0-.27815,.22833-.50648,.51063-.50648h.50648c.2823,0,.51063,.22833,.51063,.50648v3.00984l5.43016,2.52411c.17851,.09964,.30721,.27815,.30721,.48573,0,.04982-.02491,.12454-.04982,.20342l-.07888,.15361c-.09964,.17851-.27815,.30306-.48157,.30306-.05397,0-.1287-.02491-.20757-.04982l-4.91953-2.2169v4.53759c0,.58536,0,.81369-.12454,1.14581l-2.65281,7.29003c-.07473,.20342-.2823,.33212-.48573,.33212-.04982,0-.12454,0-.17851-.02491l-.48157-.17851Zm-3.05965-13.58785h-2.11726v9.50693h2.11726v-9.50693Z"/></g><rect class="cls-1" x="125.69768" y="69.00683" width="25.7454" height="138.92367"/></g><rect class="cls-1" width="277.14075" height="277.14075"/></g></g></svg>