<?xml version="1.0" encoding="utf-8"?>
<!-- Generator: Adobe Illustrator 28.1.0, SVG Export Plug-In . SVG Version: 6.00 Build 0)  -->
<svg version="1.1" id="_レイヤー_2" xmlns="http://www.w3.org/2000/svg" xmlns:xlink="http://www.w3.org/1999/xlink" x="0px"
	 y="0px" viewBox="0 0 56.4 56.4" style="enable-background:new 0 0 56.4 56.4;" xml:space="preserve">
<style type="text/css">
	.st0{fill:#FFFFFF;}
</style>
<g id="_レイヤー_1-2_00000129193239795039386970000000463153377576634788_">
	<g id="_レイヤー_2-2">
		<g id="_レイヤー_1-2">
			<path class="st0" d="M28.6,6.5c2.4-0.1,4.8,0,7.2-0.1c0.1,2.9,1.2,5.5,3.2,7.5c2.1,2,4.9,3.1,7.7,3.2v7.3
				c-2.7-0.1-5.2-0.7-7.6-1.8c-1-0.4-2-1.1-3-1.7v15.9c-0.6,7.6-7,13.5-14.6,13c-2.2-0.1-4.3-0.8-6.1-1.9c-3.8-2.2-6.2-6.1-6.6-10.4
				c-0.1-0.9-0.1-1.8,0-2.7c0.3-3.5,2-6.7,4.6-9.1c3.1-2.7,7.2-3.9,11.2-3.1c0.1,2.7-0.1,5.4-0.1,8.1c-1.9-0.7-3.9-0.3-5.5,0.7
				c-1.1,0.8-2,1.9-2.4,3.2c-0.3,0.9-0.3,1.9-0.2,2.9c0.4,3.1,3.2,5.3,6.3,5.2c2.1,0,4-1.1,5-2.9c0.4-0.6,0.7-1.2,0.8-1.9
				c0.2-3.2,0.1-6.5,0.1-9.7C28.5,21.1,28.5,13.8,28.6,6.5L28.6,6.5L28.6,6.5z"/>
		</g>
	</g>
</g>
</svg>
