<?xml version="1.0" encoding="utf-8"?>
<!-- Generator: Adobe Illustrator 26.2.1, SVG Export Plug-In . SVG Version: 6.00 Build 0)  -->
<svg version="1.1" id="レイヤー_1" xmlns="http://www.w3.org/2000/svg" xmlns:xlink="http://www.w3.org/1999/xlink" x="0px"
	 y="0px" viewBox="0 0 77.8 77.8" style="enable-background:new 0 0 77.8 77.8;" xml:space="preserve">
<style type="text/css">
	.st0{fill:#FFFFFF;}
</style>
<g id="レイヤー_2_00000081619892600315128730000017543599260521345471_">
	<g id="レイヤー_1-2">
		<path class="st0" d="M71.2,22.6c-0.8-2.9-3.1-5.2-6-6c-5.3-1.4-26.4-1.4-26.4-1.4s-21.1,0-26.4,1.4c-2.9,0.8-5.2,3.1-6,6
			C5,27.9,5,38.9,5,38.9s0,11,1.4,16.3c0.8,2.9,3.1,5.2,6,6c5.3,1.4,26.4,1.4,26.4,1.4s21.1,0,26.4-1.4c2.9-0.8,5.2-3.1,6-6
			c1.4-5.3,1.4-16.3,1.4-16.3S72.6,27.9,71.2,22.6z M32.1,49V28.7l17.5,10.1L32.1,49z"/>
	</g>
</g>
</svg>
